<?xml version="1.0" standalone="no"?>
<!DOCTYPE svg PUBLIC "-//W3C//DTD SVG 20010904//EN"
 "http://www.w3.org/TR/2001/REC-SVG-20010904/DTD/svg10.dtd">
<svg version="1.0" xmlns="http://www.w3.org/2000/svg"
 width="1280.000000pt" height="1268.000000pt" viewBox="0 0 1280.000000 1268.000000"
 preserveAspectRatio="xMidYMid meet">
<g transform="translate(0.000000,1268.000000) scale(0.100000,-0.100000)"
fill="#000000" stroke="none">
<path d="M6750 12671 c-25 -5 -90 -14 -145 -21 -131 -15 -359 -70 -482 -116
-230 -85 -483 -231 -668 -385 -49 -42 -142 -130 -205 -196 l-115 -122 -136 68
c-309 154 -596 227 -941 238 -619 20 -1198 -203 -1636 -631 -315 -307 -521
-661 -624 -1071 -25 -103 -35 -128 -52 -135 -12 -4 -94 -31 -184 -60 -335
-108 -627 -287 -882 -540 -367 -365 -583 -806 -656 -1340 -33 -246 -31 -328
18 -628 73 -458 277 -863 603 -1201 342 -354 752 -572 1245 -662 138 -26 465
-36 615 -20 360 39 728 171 1014 363 l75 52 86 -22 c366 -93 753 -97 1102 -11
42 10 85 19 95 19 10 0 50 -26 88 -57 263 -212 609 -373 954 -443 290 -58 628
-57 921 5 329 69 657 225 938 446 l74 59 62 -36 c102 -60 295 -150 401 -187
559 -199 1170 -172 1707 75 l67 30 114 -16 c438 -63 894 4 1286 190 712 338
1186 996 1287 1787 32 250 31 296 -12 597 -103 720 -574 1363 -1239 1690 -289
142 -637 230 -913 230 l-73 0 -107 108 c-382 385 -860 617 -1382 672 -132 14
-134 15 -149 48 -28 60 -130 222 -198 315 -84 112 -266 303 -368 387 -289 236
-595 386 -945 464 -220 48 -535 77 -640 57z"/>
<path d="M3935 5530 c-12 -4 -68 -59 -126 -121 -387 -419 -616 -719 -686 -894
-25 -64 -27 -81 -27 -200 0 -115 3 -138 26 -197 38 -100 85 -173 158 -241 118
-112 256 -167 420 -167 201 0 387 98 498 264 122 182 130 348 41 791 -64 315
-172 719 -202 753 -21 23 -63 28 -102 12z"/>
<path d="M7549 5533 c-36 -9 -438 -465 -604 -685 -195 -258 -240 -359 -239
-538 0 -87 5 -118 27 -183 54 -157 164 -285 302 -353 95 -46 173 -64 275 -64
207 0 398 102 509 273 76 117 86 158 86 347 -1 180 -13 263 -86 590 -47 208
-136 544 -155 581 -18 36 -58 48 -115 32z"/>
<path d="M11164 5530 c-25 -10 -222 -218 -370 -390 -238 -279 -385 -485 -442
-621 -22 -54 -27 -83 -30 -182 -4 -106 -1 -126 22 -202 63 -201 228 -358 431
-410 75 -19 211 -19 294 0 91 22 195 80 271 152 73 68 120 141 158 241 57 150
24 455 -108 982 -65 256 -108 401 -126 421 -18 20 -63 24 -100 9z"/>
<path d="M5303 4613 c-38 -7 -336 -332 -552 -603 -249 -310 -324 -473 -308
-665 13 -146 74 -278 179 -384 197 -197 505 -234 746 -89 120 73 241 237 271
368 15 66 13 237 -4 359 -47 321 -203 951 -247 999 -21 21 -37 24 -85 15z"/>
<path d="M8918 4613 c-26 -4 -123 -102 -319 -323 -263 -297 -459 -565 -510
-698 -27 -71 -37 -248 -19 -335 17 -84 83 -208 147 -277 288 -311 799 -240
988 138 49 97 59 148 58 277 -1 176 -42 414 -139 799 -83 333 -108 408 -139
420 -17 6 -20 6 -67 -1z"/>
<path d="M3024 3680 c-21 -8 -224 -226 -369 -395 -263 -306 -400 -505 -451
-655 -30 -88 -26 -252 10 -355 92 -266 331 -428 610 -413 263 15 487 198 553
451 44 174 -36 668 -202 1246 -33 113 -46 131 -93 130 -20 0 -46 -4 -58 -9z"/>
<path d="M6638 3682 c-20 -8 -184 -183 -348 -374 -297 -342 -430 -537 -476
-693 -26 -91 -22 -230 10 -331 114 -360 517 -527 859 -356 140 70 263 223 308
382 21 74 14 257 -15 435 -51 309 -196 886 -233 928 -16 17 -71 22 -105 9z"/>
<path d="M10219 3653 c-100 -90 -442 -483 -575 -660 -173 -230 -224 -340 -231
-498 -9 -181 47 -327 176 -456 119 -119 262 -179 426 -179 167 0 307 60 430
184 121 121 175 249 175 416 0 154 -55 462 -150 835 -97 381 -103 395 -172
395 -30 0 -47 -8 -79 -37z"/>
<path d="M4395 2763 c-27 -7 -65 -43 -227 -222 -358 -395 -556 -665 -609 -831
-27 -83 -29 -228 -5 -319 76 -292 358 -486 656 -451 147 17 264 76 366 182
199 207 213 399 79 1008 -44 195 -142 566 -161 601 -19 37 -44 45 -99 32z"/>
<path d="M8003 2763 c-33 -7 -327 -327 -520 -568 -284 -356 -340 -471 -331
-685 4 -86 10 -119 35 -182 96 -243 310 -390 568 -390 209 0 388 95 503 266
79 118 97 184 96 346 -1 192 -45 435 -159 875 -94 363 -90 358 -192 338z"/>
<path d="M2140 1840 c-38 -9 -81 -51 -314 -315 -301 -341 -472 -575 -521 -715
-56 -158 -33 -358 57 -508 48 -80 147 -174 227 -216 72 -38 234 -86 289 -86
54 0 202 40 267 72 164 81 287 230 325 398 36 154 -2 447 -121 924 -80 321
-107 408 -135 434 -14 12 -28 22 -32 21 -4 -1 -23 -5 -42 -9z"/>
<path d="M5750 1836 c-93 -34 -611 -638 -760 -887 -75 -123 -92 -177 -97 -299
-9 -192 43 -327 177 -460 90 -90 162 -131 294 -165 117 -30 140 -31 247 -4
135 33 220 79 308 168 121 120 180 257 181 418 0 157 -71 541 -169 914 -71
267 -84 303 -117 318 -14 6 -26 11 -27 11 -1 -1 -18 -7 -37 -14z"/>
<path d="M9370 1840 c-100 -23 -725 -772 -817 -979 -133 -300 4 -663 302 -796
59 -26 210 -65 254 -65 46 0 214 46 268 74 165 83 291 245 324 414 31 164 -18
497 -151 1007 -69 268 -87 322 -113 340 -12 8 -24 15 -27 14 -3 -1 -21 -5 -40
-9z"/>
</g>
</svg>
